<?xml version="1.0" encoding="utf-8" standalone="no"?>
<!DOCTYPE svg PUBLIC "-//W3C//DTD SVG 1.1//EN"
  "http://www.w3.org/Graphics/SVG/1.1/DTD/svg11.dtd">
<svg xmlns:xlink="http://www.w3.org/1999/xlink" width="448.267969pt" height="310.002344pt" viewBox="0 0 448.267969 310.002344" xmlns="http://www.w3.org/2000/svg" version="1.1">
 <metadata>
  <rdf:RDF xmlns:dc="http://purl.org/dc/elements/1.1/" xmlns:cc="http://creativecommons.org/ns#" xmlns:rdf="http://www.w3.org/1999/02/22-rdf-syntax-ns#">
   <cc:Work>
    <dc:type rdf:resource="http://purl.org/dc/dcmitype/StillImage"/>
    <dc:date>2026-07-19T18:14:33.942316</dc:date>
    <dc:format>image/svg+xml</dc:format>
    <dc:creator>
     <cc:Agent>
      <dc:title>Matplotlib v3.11.1, https://matplotlib.org/</dc:title>
     </cc:Agent>
    </dc:creator>
   </cc:Work>
  </rdf:RDF>
 </metadata>
 <defs>
  <style type="text/css">*{stroke-linejoin: round; stroke-linecap: butt}</style>
 </defs>
 <g id="figure_1">
  <g id="patch_1">
   <path d="M 0 310.002344 
L 448.267969 310.002344 
L 448.267969 0 
L 0 0 
z
" style="fill: #ffffff"/>
  </g>
  <g id="axes_1">
   <g id="patch_2">
    <path d="M 50.467969 271.8 
L 441.067969 271.8 
L 441.067969 22.32 
L 50.467969 22.32 
z
" style="fill: #ffffff"/>
   </g>
   <g id="matplotlib.axis_1">
    <g id="xtick_1">
     <g id="line2d_1">
      <path d="M 68.222514 271.8 
L 68.222514 22.32 
" clip-path="url(#p70dd20865d)" style="fill: none; stroke: #b0b0b0; stroke-opacity: 0.3; stroke-width: 0.8; stroke-linecap: square"/>
     </g>
     <g id="line2d_2">
      <defs>
       <path id="m67642382ea" d="M 0 0 
L 0 3.5 
" style="stroke: #000000; stroke-width: 0.8"/>
      </defs>
      <g>
       <use xlink:href="#m67642382ea" x="68.222514" y="271.8" style="stroke: #000000; stroke-width: 0.8"/>
      </g>
     </g>
     <g id="text_1">
      <!-- 0.000 -->
      <g transform="translate(53.908452 286.397656) scale(0.1 -0.1)">
       <defs>
        <path id="DejaVuSans-13" d="M 2034 4250 
Q 1547 4250 1301 3770 
Q 1056 3291 1056 2328 
Q 1056 1369 1301 889 
Q 1547 409 2034 409 
Q 2525 409 2770 889 
Q 3016 1369 3016 2328 
Q 3016 3291 2770 3770 
Q 2525 4250 2034 4250 
z
M 2034 4750 
Q 2819 4750 3233 4129 
Q 3647 3509 3647 2328 
Q 3647 1150 3233 529 
Q 2819 -91 2034 -91 
Q 1250 -91 836 529 
Q 422 1150 422 2328 
Q 422 3509 836 4129 
Q 1250 4750 2034 4750 
z
" transform="scale(0.015625)"/>
        <path id="DejaVuSans-11" d="M 684 794 
L 1344 794 
L 1344 0 
L 684 0 
L 684 794 
z
" transform="scale(0.015625)"/>
       </defs>
       <use xlink:href="#DejaVuSans-13"/>
       <use xlink:href="#DejaVuSans-11" transform="translate(63.625 0)"/>
       <use xlink:href="#DejaVuSans-13" transform="translate(95.40625 0)"/>
       <use xlink:href="#DejaVuSans-13" transform="translate(159.03125 0)"/>
       <use xlink:href="#DejaVuSans-13" transform="translate(222.65625 0)"/>
      </g>
     </g>
    </g>
    <g id="xtick_2">
     <g id="line2d_3">
      <path d="M 139.240696 271.8 
L 139.240696 22.32 
" clip-path="url(#p70dd20865d)" style="fill: none; stroke: #b0b0b0; stroke-opacity: 0.3; stroke-width: 0.8; stroke-linecap: square"/>
     </g>
     <g id="line2d_4">
      <g>
       <use xlink:href="#m67642382ea" x="139.240696" y="271.8" style="stroke: #000000; stroke-width: 0.8"/>
      </g>
     </g>
     <g id="text_2">
      <!-- 0.002 -->
      <g transform="translate(124.926634 286.397656) scale(0.1 -0.1)">
       <defs>
        <path id="DejaVuSans-15" d="M 1228 531 
L 3431 531 
L 3431 0 
L 469 0 
L 469 531 
Q 828 903 1448 1529 
Q 2069 2156 2228 2338 
Q 2531 2678 2651 2914 
Q 2772 3150 2772 3378 
Q 2772 3750 2511 3984 
Q 2250 4219 1831 4219 
Q 1534 4219 1204 4116 
Q 875 4013 500 3803 
L 500 4441 
Q 881 4594 1212 4672 
Q 1544 4750 1819 4750 
Q 2544 4750 2975 4387 
Q 3406 4025 3406 3419 
Q 3406 3131 3298 2873 
Q 3191 2616 2906 2266 
Q 2828 2175 2409 1742 
Q 1991 1309 1228 531 
z
" transform="scale(0.015625)"/>
       </defs>
       <use xlink:href="#DejaVuSans-13"/>
       <use xlink:href="#DejaVuSans-11" transform="translate(63.625 0)"/>
       <use xlink:href="#DejaVuSans-13" transform="translate(95.40625 0)"/>
       <use xlink:href="#DejaVuSans-13" transform="translate(159.03125 0)"/>
       <use xlink:href="#DejaVuSans-15" transform="translate(222.65625 0)"/>
      </g>
     </g>
    </g>
    <g id="xtick_3">
     <g id="line2d_5">
      <path d="M 210.258878 271.8 
L 210.258878 22.32 
" clip-path="url(#p70dd20865d)" style="fill: none; stroke: #b0b0b0; stroke-opacity: 0.3; stroke-width: 0.8; stroke-linecap: square"/>
     </g>
     <g id="line2d_6">
      <g>
       <use xlink:href="#m67642382ea" x="210.258878" y="271.8" style="stroke: #000000; stroke-width: 0.8"/>
      </g>
     </g>
     <g id="text_3">
      <!-- 0.004 -->
      <g transform="translate(195.944815 286.397656) scale(0.1 -0.1)">
       <defs>
        <path id="DejaVuSans-17" d="M 2419 4116 
L 825 1625 
L 2419 1625 
L 2419 4116 
z
M 2253 4666 
L 3047 4666 
L 3047 1625 
L 3713 1625 
L 3713 1100 
L 3047 1100 
L 3047 0 
L 2419 0 
L 2419 1100 
L 313 1100 
L 313 1709 
L 2253 4666 
z
" transform="scale(0.015625)"/>
       </defs>
       <use xlink:href="#DejaVuSans-13"/>
       <use xlink:href="#DejaVuSans-11" transform="translate(63.625 0)"/>
       <use xlink:href="#DejaVuSans-13" transform="translate(95.40625 0)"/>
       <use xlink:href="#DejaVuSans-13" transform="translate(159.03125 0)"/>
       <use xlink:href="#DejaVuSans-17" transform="translate(222.65625 0)"/>
      </g>
     </g>
    </g>
    <g id="xtick_4">
     <g id="line2d_7">
      <path d="M 281.27706 271.8 
L 281.27706 22.32 
" clip-path="url(#p70dd20865d)" style="fill: none; stroke: #b0b0b0; stroke-opacity: 0.3; stroke-width: 0.8; stroke-linecap: square"/>
     </g>
     <g id="line2d_8">
      <g>
       <use xlink:href="#m67642382ea" x="281.27706" y="271.8" style="stroke: #000000; stroke-width: 0.8"/>
      </g>
     </g>
     <g id="text_4">
      <!-- 0.006 -->
      <g transform="translate(266.962997 286.397656) scale(0.1 -0.1)">
       <defs>
        <path id="DejaVuSans-19" d="M 2113 2584 
Q 1688 2584 1439 2293 
Q 1191 2003 1191 1497 
Q 1191 994 1439 701 
Q 1688 409 2113 409 
Q 2538 409 2786 701 
Q 3034 994 3034 1497 
Q 3034 2003 2786 2293 
Q 2538 2584 2113 2584 
z
M 3366 4563 
L 3366 3988 
Q 3128 4100 2886 4159 
Q 2644 4219 2406 4219 
Q 1781 4219 1451 3797 
Q 1122 3375 1075 2522 
Q 1259 2794 1537 2939 
Q 1816 3084 2150 3084 
Q 2853 3084 3261 2657 
Q 3669 2231 3669 1497 
Q 3669 778 3244 343 
Q 2819 -91 2113 -91 
Q 1303 -91 875 529 
Q 447 1150 447 2328 
Q 447 3434 972 4092 
Q 1497 4750 2381 4750 
Q 2619 4750 2861 4703 
Q 3103 4656 3366 4563 
z
" transform="scale(0.015625)"/>
       </defs>
       <use xlink:href="#DejaVuSans-13"/>
       <use xlink:href="#DejaVuSans-11" transform="translate(63.625 0)"/>
       <use xlink:href="#DejaVuSans-13" transform="translate(95.40625 0)"/>
       <use xlink:href="#DejaVuSans-13" transform="translate(159.03125 0)"/>
       <use xlink:href="#DejaVuSans-19" transform="translate(222.65625 0)"/>
      </g>
     </g>
    </g>
    <g id="xtick_5">
     <g id="line2d_9">
      <path d="M 352.295241 271.8 
L 352.295241 22.32 
" clip-path="url(#p70dd20865d)" style="fill: none; stroke: #b0b0b0; stroke-opacity: 0.3; stroke-width: 0.8; stroke-linecap: square"/>
     </g>
     <g id="line2d_10">
      <g>
       <use xlink:href="#m67642382ea" x="352.295241" y="271.8" style="stroke: #000000; stroke-width: 0.8"/>
      </g>
     </g>
     <g id="text_5">
      <!-- 0.008 -->
      <g transform="translate(337.981179 286.397656) scale(0.1 -0.1)">
       <defs>
        <path id="DejaVuSans-1b" d="M 2034 2216 
Q 1584 2216 1326 1975 
Q 1069 1734 1069 1313 
Q 1069 891 1326 650 
Q 1584 409 2034 409 
Q 2484 409 2743 651 
Q 3003 894 3003 1313 
Q 3003 1734 2745 1975 
Q 2488 2216 2034 2216 
z
M 1403 2484 
Q 997 2584 770 2862 
Q 544 3141 544 3541 
Q 544 4100 942 4425 
Q 1341 4750 2034 4750 
Q 2731 4750 3128 4425 
Q 3525 4100 3525 3541 
Q 3525 3141 3298 2862 
Q 3072 2584 2669 2484 
Q 3125 2378 3379 2068 
Q 3634 1759 3634 1313 
Q 3634 634 3220 271 
Q 2806 -91 2034 -91 
Q 1263 -91 848 271 
Q 434 634 434 1313 
Q 434 1759 690 2068 
Q 947 2378 1403 2484 
z
M 1172 3481 
Q 1172 3119 1398 2916 
Q 1625 2713 2034 2713 
Q 2441 2713 2670 2916 
Q 2900 3119 2900 3481 
Q 2900 3844 2670 4047 
Q 2441 4250 2034 4250 
Q 1625 4250 1398 4047 
Q 1172 3844 1172 3481 
z
" transform="scale(0.015625)"/>
       </defs>
       <use xlink:href="#DejaVuSans-13"/>
       <use xlink:href="#DejaVuSans-11" transform="translate(63.625 0)"/>
       <use xlink:href="#DejaVuSans-13" transform="translate(95.40625 0)"/>
       <use xlink:href="#DejaVuSans-13" transform="translate(159.03125 0)"/>
       <use xlink:href="#DejaVuSans-1b" transform="translate(222.65625 0)"/>
      </g>
     </g>
    </g>
    <g id="xtick_6">
     <g id="line2d_11">
      <path d="M 423.313423 271.8 
L 423.313423 22.32 
" clip-path="url(#p70dd20865d)" style="fill: none; stroke: #b0b0b0; stroke-opacity: 0.3; stroke-width: 0.8; stroke-linecap: square"/>
     </g>
     <g id="line2d_12">
      <g>
       <use xlink:href="#m67642382ea" x="423.313423" y="271.8" style="stroke: #000000; stroke-width: 0.8"/>
      </g>
     </g>
     <g id="text_6">
      <!-- 0.010 -->
      <g transform="translate(408.999361 286.397656) scale(0.1 -0.1)">
       <defs>
        <path id="DejaVuSans-14" d="M 794 531 
L 1825 531 
L 1825 4091 
L 703 3866 
L 703 4441 
L 1819 4666 
L 2450 4666 
L 2450 531 
L 3481 531 
L 3481 0 
L 794 0 
L 794 531 
z
" transform="scale(0.015625)"/>
       </defs>
       <use xlink:href="#DejaVuSans-13"/>
       <use xlink:href="#DejaVuSans-11" transform="translate(63.625 0)"/>
       <use xlink:href="#DejaVuSans-13" transform="translate(95.40625 0)"/>
       <use xlink:href="#DejaVuSans-14" transform="translate(159.03125 0)"/>
       <use xlink:href="#DejaVuSans-13" transform="translate(222.65625 0)"/>
      </g>
     </g>
    </g>
    <g id="text_7">
     <!-- Depolarizing error probability $e_d$ -->
     <g transform="translate(165.317969 300.4) scale(0.1 -0.1)">
      <defs>
       <path id="DejaVuSans-27" d="M 1259 4147 
L 1259 519 
L 2022 519 
Q 2988 519 3436 956 
Q 3884 1394 3884 2338 
Q 3884 3275 3436 3711 
Q 2988 4147 2022 4147 
L 1259 4147 
z
M 628 4666 
L 1925 4666 
Q 3281 4666 3915 4102 
Q 4550 3538 4550 2338 
Q 4550 1131 3912 565 
Q 3275 0 1925 0 
L 628 0 
L 628 4666 
z
" transform="scale(0.015625)"/>
       <path id="DejaVuSans-48" d="M 3597 1894 
L 3597 1613 
L 953 1613 
Q 991 1019 1311 708 
Q 1631 397 2203 397 
Q 2534 397 2845 478 
Q 3156 559 3463 722 
L 3463 178 
Q 3153 47 2828 -22 
Q 2503 -91 2169 -91 
Q 1331 -91 842 396 
Q 353 884 353 1716 
Q 353 2575 817 3079 
Q 1281 3584 2069 3584 
Q 2775 3584 3186 3129 
Q 3597 2675 3597 1894 
z
M 3022 2063 
Q 3016 2534 2758 2815 
Q 2500 3097 2075 3097 
Q 1594 3097 1305 2825 
Q 1016 2553 972 2059 
L 3022 2063 
z
" transform="scale(0.015625)"/>
       <path id="DejaVuSans-53" d="M 1159 525 
L 1159 -1331 
L 581 -1331 
L 581 3500 
L 1159 3500 
L 1159 2969 
Q 1341 3281 1617 3432 
Q 1894 3584 2278 3584 
Q 2916 3584 3314 3078 
Q 3713 2572 3713 1747 
Q 3713 922 3314 415 
Q 2916 -91 2278 -91 
Q 1894 -91 1617 61 
Q 1341 213 1159 525 
z
M 3116 1747 
Q 3116 2381 2855 2742 
Q 2594 3103 2138 3103 
Q 1681 3103 1420 2742 
Q 1159 2381 1159 1747 
Q 1159 1113 1420 752 
Q 1681 391 2138 391 
Q 2594 391 2855 752 
Q 3116 1113 3116 1747 
z
" transform="scale(0.015625)"/>
       <path id="DejaVuSans-52" d="M 1959 3097 
Q 1497 3097 1228 2736 
Q 959 2375 959 1747 
Q 959 1119 1226 758 
Q 1494 397 1959 397 
Q 2419 397 2687 759 
Q 2956 1122 2956 1747 
Q 2956 2369 2687 2733 
Q 2419 3097 1959 3097 
z
M 1959 3584 
Q 2709 3584 3137 3096 
Q 3566 2609 3566 1747 
Q 3566 888 3137 398 
Q 2709 -91 1959 -91 
Q 1206 -91 779 398 
Q 353 888 353 1747 
Q 353 2609 779 3096 
Q 1206 3584 1959 3584 
z
" transform="scale(0.015625)"/>
       <path id="DejaVuSans-4f" d="M 603 4863 
L 1178 4863 
L 1178 0 
L 603 0 
L 603 4863 
z
" transform="scale(0.015625)"/>
       <path id="DejaVuSans-44" d="M 2194 1759 
Q 1497 1759 1228 1600 
Q 959 1441 959 1056 
Q 959 750 1161 570 
Q 1363 391 1709 391 
Q 2188 391 2477 730 
Q 2766 1069 2766 1631 
L 2766 1759 
L 2194 1759 
z
M 3341 1997 
L 3341 0 
L 2766 0 
L 2766 531 
Q 2569 213 2275 61 
Q 1981 -91 1556 -91 
Q 1019 -91 701 211 
Q 384 513 384 1019 
Q 384 1609 779 1909 
Q 1175 2209 1959 2209 
L 2766 2209 
L 2766 2266 
Q 2766 2663 2505 2880 
Q 2244 3097 1772 3097 
Q 1472 3097 1187 3025 
Q 903 2953 641 2809 
L 641 3341 
Q 956 3463 1253 3523 
Q 1550 3584 1831 3584 
Q 2591 3584 2966 3190 
Q 3341 2797 3341 1997 
z
" transform="scale(0.015625)"/>
       <path id="DejaVuSans-55" d="M 2631 2963 
Q 2534 3019 2420 3045 
Q 2306 3072 2169 3072 
Q 1681 3072 1420 2755 
Q 1159 2438 1159 1844 
L 1159 0 
L 581 0 
L 581 3500 
L 1159 3500 
L 1159 2956 
Q 1341 3275 1631 3429 
Q 1922 3584 2338 3584 
Q 2397 3584 2469 3576 
Q 2541 3569 2628 3553 
L 2631 2963 
z
" transform="scale(0.015625)"/>
       <path id="DejaVuSans-4c" d="M 603 3500 
L 1178 3500 
L 1178 0 
L 603 0 
L 603 3500 
z
M 603 4863 
L 1178 4863 
L 1178 4134 
L 603 4134 
L 603 4863 
z
" transform="scale(0.015625)"/>
       <path id="DejaVuSans-5d" d="M 353 3500 
L 3084 3500 
L 3084 2975 
L 922 459 
L 3084 459 
L 3084 0 
L 275 0 
L 275 525 
L 2438 3041 
L 353 3041 
L 353 3500 
z
" transform="scale(0.015625)"/>
       <path id="DejaVuSans-51" d="M 3513 2113 
L 3513 0 
L 2938 0 
L 2938 2094 
Q 2938 2591 2744 2837 
Q 2550 3084 2163 3084 
Q 1697 3084 1428 2787 
Q 1159 2491 1159 1978 
L 1159 0 
L 581 0 
L 581 3500 
L 1159 3500 
L 1159 2956 
Q 1366 3272 1645 3428 
Q 1925 3584 2291 3584 
Q 2894 3584 3203 3211 
Q 3513 2838 3513 2113 
z
" transform="scale(0.015625)"/>
       <path id="DejaVuSans-4a" d="M 2906 1791 
Q 2906 2416 2648 2759 
Q 2391 3103 1925 3103 
Q 1463 3103 1205 2759 
Q 947 2416 947 1791 
Q 947 1169 1205 825 
Q 1463 481 1925 481 
Q 2391 481 2648 825 
Q 2906 1169 2906 1791 
z
M 3481 434 
Q 3481 -459 3084 -895 
Q 2688 -1331 1869 -1331 
Q 1566 -1331 1297 -1286 
Q 1028 -1241 775 -1147 
L 775 -588 
Q 1028 -725 1275 -790 
Q 1522 -856 1778 -856 
Q 2344 -856 2625 -561 
Q 2906 -266 2906 331 
L 2906 616 
Q 2728 306 2450 153 
Q 2172 0 1784 0 
Q 1141 0 747 490 
Q 353 981 353 1791 
Q 353 2603 747 3093 
Q 1141 3584 1784 3584 
Q 2172 3584 2450 3431 
Q 2728 3278 2906 2969 
L 2906 3500 
L 3481 3500 
L 3481 434 
z
" transform="scale(0.015625)"/>
       <path id="DejaVuSans-3" transform="scale(0.015625)"/>
       <path id="DejaVuSans-45" d="M 3116 1747 
Q 3116 2381 2855 2742 
Q 2594 3103 2138 3103 
Q 1681 3103 1420 2742 
Q 1159 2381 1159 1747 
Q 1159 1113 1420 752 
Q 1681 391 2138 391 
Q 2594 391 2855 752 
Q 3116 1113 3116 1747 
z
M 1159 2969 
Q 1341 3281 1617 3432 
Q 1894 3584 2278 3584 
Q 2916 3584 3314 3078 
Q 3713 2572 3713 1747 
Q 3713 922 3314 415 
Q 2916 -91 2278 -91 
Q 1894 -91 1617 61 
Q 1341 213 1159 525 
L 1159 0 
L 581 0 
L 581 4863 
L 1159 4863 
L 1159 2969 
z
" transform="scale(0.015625)"/>
       <path id="DejaVuSans-57" d="M 1172 4494 
L 1172 3500 
L 2356 3500 
L 2356 3053 
L 1172 3053 
L 1172 1153 
Q 1172 725 1289 603 
Q 1406 481 1766 481 
L 2356 481 
L 2356 0 
L 1766 0 
Q 1100 0 847 248 
Q 594 497 594 1153 
L 594 3053 
L 172 3053 
L 172 3500 
L 594 3500 
L 594 4494 
L 1172 4494 
z
" transform="scale(0.015625)"/>
       <path id="DejaVuSans-5c" d="M 2059 -325 
Q 1816 -950 1584 -1140 
Q 1353 -1331 966 -1331 
L 506 -1331 
L 506 -850 
L 844 -850 
Q 1081 -850 1212 -737 
Q 1344 -625 1503 -206 
L 1606 56 
L 191 3500 
L 800 3500 
L 1894 763 
L 2988 3500 
L 3597 3500 
L 2059 -325 
z
" transform="scale(0.015625)"/>
       <path id="DejaVuSans-Oblique-48" d="M 3078 2063 
Q 3088 2113 3092 2166 
Q 3097 2219 3097 2272 
Q 3097 2653 2873 2875 
Q 2650 3097 2266 3097 
Q 1838 3097 1509 2826 
Q 1181 2556 1013 2059 
L 3078 2063 
z
M 3578 1613 
L 903 1613 
Q 884 1494 878 1425 
Q 872 1356 872 1306 
Q 872 872 1139 634 
Q 1406 397 1894 397 
Q 2269 397 2603 481 
Q 2938 566 3225 728 
L 3116 159 
Q 2806 34 2476 -28 
Q 2147 -91 1806 -91 
Q 1078 -91 686 257 
Q 294 606 294 1247 
Q 294 1794 489 2264 
Q 684 2734 1063 3103 
Q 1306 3334 1642 3459 
Q 1978 3584 2356 3584 
Q 2950 3584 3301 3228 
Q 3653 2872 3653 2272 
Q 3653 2128 3634 1964 
Q 3616 1800 3578 1613 
z
" transform="scale(0.015625)"/>
       <path id="DejaVuSans-Oblique-47" d="M 2675 525 
Q 2444 222 2128 65 
Q 1813 -91 1428 -91 
Q 903 -91 598 267 
Q 294 625 294 1247 
Q 294 1766 478 2236 
Q 663 2706 1013 3078 
Q 1244 3325 1534 3454 
Q 1825 3584 2144 3584 
Q 2481 3584 2739 3421 
Q 2997 3259 3138 2956 
L 3513 4863 
L 4091 4863 
L 3144 0 
L 2566 0 
L 2675 525 
z
M 891 1350 
Q 891 897 1095 644 
Q 1300 391 1663 391 
Q 1931 391 2161 520 
Q 2391 650 2566 903 
Q 2750 1166 2856 1509 
Q 2963 1853 2963 2188 
Q 2963 2622 2758 2865 
Q 2553 3109 2194 3109 
Q 1922 3109 1687 2981 
Q 1453 2853 1288 2613 
Q 1106 2353 998 2009 
Q 891 1666 891 1350 
z
" transform="scale(0.015625)"/>
      </defs>
      <use xlink:href="#DejaVuSans-27" transform="translate(0 0.015625)"/>
      <use xlink:href="#DejaVuSans-48" transform="translate(77.001953 0.015625)"/>
      <use xlink:href="#DejaVuSans-53" transform="translate(138.525391 0.015625)"/>
      <use xlink:href="#DejaVuSans-52" transform="translate(202.001953 0.015625)"/>
      <use xlink:href="#DejaVuSans-4f" transform="translate(263.183594 0.015625)"/>
      <use xlink:href="#DejaVuSans-44" transform="translate(290.966797 0.015625)"/>
      <use xlink:href="#DejaVuSans-55" transform="translate(352.246094 0.015625)"/>
      <use xlink:href="#DejaVuSans-4c" transform="translate(393.359375 0.015625)"/>
      <use xlink:href="#DejaVuSans-5d" transform="translate(421.142578 0.015625)"/>
      <use xlink:href="#DejaVuSans-4c" transform="translate(473.632812 0.015625)"/>
      <use xlink:href="#DejaVuSans-51" transform="translate(501.416016 0.015625)"/>
      <use xlink:href="#DejaVuSans-4a" transform="translate(564.794922 0.015625)"/>
      <use xlink:href="#DejaVuSans-3" transform="translate(628.271484 0.015625)"/>
      <use xlink:href="#DejaVuSans-48" transform="translate(660.058594 0.015625)"/>
      <use xlink:href="#DejaVuSans-55" transform="translate(721.582031 0.015625)"/>
      <use xlink:href="#DejaVuSans-55" transform="translate(760.695312 0.015625)"/>
      <use xlink:href="#DejaVuSans-52" transform="translate(799.808594 0.015625)"/>
      <use xlink:href="#DejaVuSans-55" transform="translate(860.990234 0.015625)"/>
      <use xlink:href="#DejaVuSans-3" transform="translate(902.103516 0.015625)"/>
      <use xlink:href="#DejaVuSans-53" transform="translate(933.890625 0.015625)"/>
      <use xlink:href="#DejaVuSans-55" transform="translate(997.367188 0.015625)"/>
      <use xlink:href="#DejaVuSans-52" transform="translate(1036.480469 0.015625)"/>
      <use xlink:href="#DejaVuSans-45" transform="translate(1097.662109 0.015625)"/>
      <use xlink:href="#DejaVuSans-44" transform="translate(1161.138672 0.015625)"/>
      <use xlink:href="#DejaVuSans-45" transform="translate(1222.417969 0.015625)"/>
      <use xlink:href="#DejaVuSans-4c" transform="translate(1285.894531 0.015625)"/>
      <use xlink:href="#DejaVuSans-4f" transform="translate(1313.677734 0.015625)"/>
      <use xlink:href="#DejaVuSans-4c" transform="translate(1341.460938 0.015625)"/>
      <use xlink:href="#DejaVuSans-57" transform="translate(1369.244141 0.015625)"/>
      <use xlink:href="#DejaVuSans-5c" transform="translate(1408.453125 0.015625)"/>
      <use xlink:href="#DejaVuSans-3" transform="translate(1467.632812 0.015625)"/>
      <use xlink:href="#DejaVuSans-Oblique-48" transform="translate(1499.419922 0.015625)"/>
      <use xlink:href="#DejaVuSans-Oblique-47" transform="translate(1560.943359 -14.984326) scale(0.7)"/>
     </g>
    </g>
   </g>
   <g id="matplotlib.axis_2">
    <g id="ytick_1">
     <g id="line2d_13">
      <path d="M 50.467969 265.04032 
L 441.067969 265.04032 
" clip-path="url(#p70dd20865d)" style="fill: none; stroke: #b0b0b0; stroke-opacity: 0.3; stroke-width: 0.8; stroke-linecap: square"/>
     </g>
     <g id="line2d_14">
      <defs>
       <path id="m5cfae73430" d="M 0 0 
L -3.5 0 
" style="stroke: #000000; stroke-width: 0.8"/>
      </defs>
      <g>
       <use xlink:href="#m5cfae73430" x="50.467969" y="265.04032" style="stroke: #000000; stroke-width: 0.8"/>
      </g>
     </g>
     <g id="text_8">
      <!-- 0.90 -->
      <g transform="translate(21.202344 268.839148) scale(0.1 -0.1)">
       <defs>
        <path id="DejaVuSans-1c" d="M 703 97 
L 703 672 
Q 941 559 1184 500 
Q 1428 441 1663 441 
Q 2288 441 2617 861 
Q 2947 1281 2994 2138 
Q 2813 1869 2534 1725 
Q 2256 1581 1919 1581 
Q 1219 1581 811 2004 
Q 403 2428 403 3163 
Q 403 3881 828 4315 
Q 1253 4750 1959 4750 
Q 2769 4750 3195 4129 
Q 3622 3509 3622 2328 
Q 3622 1225 3098 567 
Q 2575 -91 1691 -91 
Q 1453 -91 1209 -44 
Q 966 3 703 97 
z
M 1959 2075 
Q 2384 2075 2632 2365 
Q 2881 2656 2881 3163 
Q 2881 3666 2632 3958 
Q 2384 4250 1959 4250 
Q 1534 4250 1286 3958 
Q 1038 3666 1038 3163 
Q 1038 2656 1286 2365 
Q 1534 2075 1959 2075 
z
" transform="scale(0.015625)"/>
       </defs>
       <use xlink:href="#DejaVuSans-13"/>
       <use xlink:href="#DejaVuSans-11" transform="translate(63.625 0)"/>
       <use xlink:href="#DejaVuSans-1c" transform="translate(95.40625 0)"/>
       <use xlink:href="#DejaVuSans-13" transform="translate(159.03125 0)"/>
      </g>
     </g>
    </g>
    <g id="ytick_2">
     <g id="line2d_15">
      <path d="M 50.467969 218.764256 
L 441.067969 218.764256 
" clip-path="url(#p70dd20865d)" style="fill: none; stroke: #b0b0b0; stroke-opacity: 0.3; stroke-width: 0.8; stroke-linecap: square"/>
     </g>
     <g id="line2d_16">
      <g>
       <use xlink:href="#m5cfae73430" x="50.467969" y="218.764256" style="stroke: #000000; stroke-width: 0.8"/>
      </g>
     </g>
     <g id="text_9">
      <!-- 0.92 -->
      <g transform="translate(21.202344 222.563084) scale(0.1 -0.1)">
       <use xlink:href="#DejaVuSans-13"/>
       <use xlink:href="#DejaVuSans-11" transform="translate(63.625 0)"/>
       <use xlink:href="#DejaVuSans-1c" transform="translate(95.40625 0)"/>
       <use xlink:href="#DejaVuSans-15" transform="translate(159.03125 0)"/>
      </g>
     </g>
    </g>
    <g id="ytick_3">
     <g id="line2d_17">
      <path d="M 50.467969 172.488192 
L 441.067969 172.488192 
" clip-path="url(#p70dd20865d)" style="fill: none; stroke: #b0b0b0; stroke-opacity: 0.3; stroke-width: 0.8; stroke-linecap: square"/>
     </g>
     <g id="line2d_18">
      <g>
       <use xlink:href="#m5cfae73430" x="50.467969" y="172.488192" style="stroke: #000000; stroke-width: 0.8"/>
      </g>
     </g>
     <g id="text_10">
      <!-- 0.94 -->
      <g transform="translate(21.202344 176.28702) scale(0.1 -0.1)">
       <use xlink:href="#DejaVuSans-13"/>
       <use xlink:href="#DejaVuSans-11" transform="translate(63.625 0)"/>
       <use xlink:href="#DejaVuSans-1c" transform="translate(95.40625 0)"/>
       <use xlink:href="#DejaVuSans-17" transform="translate(159.03125 0)"/>
      </g>
     </g>
    </g>
    <g id="ytick_4">
     <g id="line2d_19">
      <path d="M 50.467969 126.212128 
L 441.067969 126.212128 
" clip-path="url(#p70dd20865d)" style="fill: none; stroke: #b0b0b0; stroke-opacity: 0.3; stroke-width: 0.8; stroke-linecap: square"/>
     </g>
     <g id="line2d_20">
      <g>
       <use xlink:href="#m5cfae73430" x="50.467969" y="126.212128" style="stroke: #000000; stroke-width: 0.8"/>
      </g>
     </g>
     <g id="text_11">
      <!-- 0.96 -->
      <g transform="translate(21.202344 130.010956) scale(0.1 -0.1)">
       <use xlink:href="#DejaVuSans-13"/>
       <use xlink:href="#DejaVuSans-11" transform="translate(63.625 0)"/>
       <use xlink:href="#DejaVuSans-1c" transform="translate(95.40625 0)"/>
       <use xlink:href="#DejaVuSans-19" transform="translate(159.03125 0)"/>
      </g>
     </g>
    </g>
    <g id="ytick_5">
     <g id="line2d_21">
      <path d="M 50.467969 79.936064 
L 441.067969 79.936064 
" clip-path="url(#p70dd20865d)" style="fill: none; stroke: #b0b0b0; stroke-opacity: 0.3; stroke-width: 0.8; stroke-linecap: square"/>
     </g>
     <g id="line2d_22">
      <g>
       <use xlink:href="#m5cfae73430" x="50.467969" y="79.936064" style="stroke: #000000; stroke-width: 0.8"/>
      </g>
     </g>
     <g id="text_12">
      <!-- 0.98 -->
      <g transform="translate(21.202344 83.734892) scale(0.1 -0.1)">
       <use xlink:href="#DejaVuSans-13"/>
       <use xlink:href="#DejaVuSans-11" transform="translate(63.625 0)"/>
       <use xlink:href="#DejaVuSans-1c" transform="translate(95.40625 0)"/>
       <use xlink:href="#DejaVuSans-1b" transform="translate(159.03125 0)"/>
      </g>
     </g>
    </g>
    <g id="ytick_6">
     <g id="line2d_23">
      <path d="M 50.467969 33.66 
L 441.067969 33.66 
" clip-path="url(#p70dd20865d)" style="fill: none; stroke: #b0b0b0; stroke-opacity: 0.3; stroke-width: 0.8; stroke-linecap: square"/>
     </g>
     <g id="line2d_24">
      <g>
       <use xlink:href="#m5cfae73430" x="50.467969" y="33.66" style="stroke: #000000; stroke-width: 0.8"/>
      </g>
     </g>
     <g id="text_13">
      <!-- 1.00 -->
      <g transform="translate(21.202344 37.458828) scale(0.1 -0.1)">
       <use xlink:href="#DejaVuSans-14"/>
       <use xlink:href="#DejaVuSans-11" transform="translate(63.625 0)"/>
       <use xlink:href="#DejaVuSans-13" transform="translate(95.40625 0)"/>
       <use xlink:href="#DejaVuSans-13" transform="translate(159.03125 0)"/>
      </g>
     </g>
    </g>
    <g id="text_14">
     <!-- Fidelity $F$ -->
     <g transform="translate(14.8 169.41) rotate(-90) scale(0.1 -0.1)">
      <defs>
       <path id="DejaVuSans-29" d="M 628 4666 
L 3309 4666 
L 3309 4134 
L 1259 4134 
L 1259 2759 
L 3109 2759 
L 3109 2228 
L 1259 2228 
L 1259 0 
L 628 0 
L 628 4666 
z
" transform="scale(0.015625)"/>
       <path id="DejaVuSans-47" d="M 2906 2969 
L 2906 4863 
L 3481 4863 
L 3481 0 
L 2906 0 
L 2906 525 
Q 2725 213 2448 61 
Q 2172 -91 1784 -91 
Q 1150 -91 751 415 
Q 353 922 353 1747 
Q 353 2572 751 3078 
Q 1150 3584 1784 3584 
Q 2172 3584 2448 3432 
Q 2725 3281 2906 2969 
z
M 947 1747 
Q 947 1113 1208 752 
Q 1469 391 1925 391 
Q 2381 391 2643 752 
Q 2906 1113 2906 1747 
Q 2906 2381 2643 2742 
Q 2381 3103 1925 3103 
Q 1469 3103 1208 2742 
Q 947 2381 947 1747 
z
" transform="scale(0.015625)"/>
       <path id="DejaVuSans-Oblique-29" d="M 1081 4666 
L 3756 4666 
L 3653 4134 
L 1606 4134 
L 1338 2759 
L 3188 2759 
L 3084 2228 
L 1234 2228 
L 800 0 
L 172 0 
L 1081 4666 
z
" transform="scale(0.015625)"/>
      </defs>
      <use xlink:href="#DejaVuSans-29" transform="translate(0 0.015625)"/>
      <use xlink:href="#DejaVuSans-4c" transform="translate(50.519531 0.015625)"/>
      <use xlink:href="#DejaVuSans-47" transform="translate(78.302734 0.015625)"/>
      <use xlink:href="#DejaVuSans-48" transform="translate(141.779297 0.015625)"/>
      <use xlink:href="#DejaVuSans-4f" transform="translate(203.302734 0.015625)"/>
      <use xlink:href="#DejaVuSans-4c" transform="translate(231.085938 0.015625)"/>
      <use xlink:href="#DejaVuSans-57" transform="translate(258.869141 0.015625)"/>
      <use xlink:href="#DejaVuSans-5c" transform="translate(298.078125 0.015625)"/>
      <use xlink:href="#DejaVuSans-3" transform="translate(357.257812 0.015625)"/>
      <use xlink:href="#DejaVuSans-Oblique-29" transform="translate(389.044922 0.015625)"/>
     </g>
    </g>
   </g>
   <g id="line2d_25">
    <path d="M 68.222514 33.66 
L 103.731605 49.103521 
L 139.240696 64.614975 
L 174.749787 80.241824 
L 210.258878 96.031414 
L 245.767969 112.030717 
L 281.27706 128.28603 
L 316.786151 144.842662 
L 352.295241 161.74458 
L 387.804332 179.034049 
L 423.313423 196.751235 
" clip-path="url(#p70dd20865d)" style="fill: none; stroke-dasharray: 5.55,2.4; stroke-dashoffset: 0; stroke: #7f7f7f; stroke-width: 1.5"/>
    <defs>
     <path id="m9ad724bcd5" d="M -3 3 
L 3 3 
L 3 -3 
L -3 -3 
z
" style="stroke: #7f7f7f; stroke-linejoin: miter"/>
    </defs>
    <g clip-path="url(#p70dd20865d)">
     <use xlink:href="#m9ad724bcd5" x="68.222514" y="33.66" style="fill: #7f7f7f; stroke: #7f7f7f; stroke-linejoin: miter"/>
     <use xlink:href="#m9ad724bcd5" x="103.731605" y="49.103521" style="fill: #7f7f7f; stroke: #7f7f7f; stroke-linejoin: miter"/>
     <use xlink:href="#m9ad724bcd5" x="139.240696" y="64.614975" style="fill: #7f7f7f; stroke: #7f7f7f; stroke-linejoin: miter"/>
     <use xlink:href="#m9ad724bcd5" x="174.749787" y="80.241824" style="fill: #7f7f7f; stroke: #7f7f7f; stroke-linejoin: miter"/>
     <use xlink:href="#m9ad724bcd5" x="210.258878" y="96.031414" style="fill: #7f7f7f; stroke: #7f7f7f; stroke-linejoin: miter"/>
     <use xlink:href="#m9ad724bcd5" x="245.767969" y="112.030717" style="fill: #7f7f7f; stroke: #7f7f7f; stroke-linejoin: miter"/>
     <use xlink:href="#m9ad724bcd5" x="281.27706" y="128.28603" style="fill: #7f7f7f; stroke: #7f7f7f; stroke-linejoin: miter"/>
     <use xlink:href="#m9ad724bcd5" x="316.786151" y="144.842662" style="fill: #7f7f7f; stroke: #7f7f7f; stroke-linejoin: miter"/>
     <use xlink:href="#m9ad724bcd5" x="352.295241" y="161.74458" style="fill: #7f7f7f; stroke: #7f7f7f; stroke-linejoin: miter"/>
     <use xlink:href="#m9ad724bcd5" x="387.804332" y="179.034049" style="fill: #7f7f7f; stroke: #7f7f7f; stroke-linejoin: miter"/>
     <use xlink:href="#m9ad724bcd5" x="423.313423" y="196.751235" style="fill: #7f7f7f; stroke: #7f7f7f; stroke-linejoin: miter"/>
    </g>
   </g>
   <g id="line2d_26">
    <path d="M 68.222514 33.66 
L 103.731605 108.801733 
L 139.240696 180.055169 
L 174.749787 247.544522 
L 210.258878 100.876317 
L 245.767969 119.566839 
L 281.27706 139.089074 
L 316.786151 159.479464 
L 352.295241 180.772106 
L 387.804332 202.997934 
L 423.313423 226.183843 
" clip-path="url(#p70dd20865d)" style="fill: none; stroke: #1f77b4; stroke-width: 1.5; stroke-linecap: square"/>
    <defs>
     <path id="m3b48075adb" d="M 0 3 
C 0.795609 3 1.55874 2.683901 2.12132 2.12132 
C 2.683901 1.55874 3 0.795609 3 0 
C 3 -0.795609 2.683901 -1.55874 2.12132 -2.12132 
C 1.55874 -2.683901 0.795609 -3 0 -3 
C -0.795609 -3 -1.55874 -2.683901 -2.12132 -2.12132 
C -2.683901 -1.55874 -3 -0.795609 -3 0 
C -3 0.795609 -2.683901 1.55874 -2.12132 2.12132 
C -1.55874 2.683901 -0.795609 3 0 3 
z
" style="stroke: #1f77b4"/>
    </defs>
    <g clip-path="url(#p70dd20865d)">
     <use xlink:href="#m3b48075adb" x="68.222514" y="33.66" style="fill: #1f77b4; stroke: #1f77b4"/>
     <use xlink:href="#m3b48075adb" x="103.731605" y="108.801733" style="fill: #1f77b4; stroke: #1f77b4"/>
     <use xlink:href="#m3b48075adb" x="139.240696" y="180.055169" style="fill: #1f77b4; stroke: #1f77b4"/>
     <use xlink:href="#m3b48075adb" x="174.749787" y="247.544522" style="fill: #1f77b4; stroke: #1f77b4"/>
     <use xlink:href="#m3b48075adb" x="210.258878" y="100.876317" style="fill: #1f77b4; stroke: #1f77b4"/>
     <use xlink:href="#m3b48075adb" x="245.767969" y="119.566839" style="fill: #1f77b4; stroke: #1f77b4"/>
     <use xlink:href="#m3b48075adb" x="281.27706" y="139.089074" style="fill: #1f77b4; stroke: #1f77b4"/>
     <use xlink:href="#m3b48075adb" x="316.786151" y="159.479464" style="fill: #1f77b4; stroke: #1f77b4"/>
     <use xlink:href="#m3b48075adb" x="352.295241" y="180.772106" style="fill: #1f77b4; stroke: #1f77b4"/>
     <use xlink:href="#m3b48075adb" x="387.804332" y="202.997934" style="fill: #1f77b4; stroke: #1f77b4"/>
     <use xlink:href="#m3b48075adb" x="423.313423" y="226.183843" style="fill: #1f77b4; stroke: #1f77b4"/>
    </g>
   </g>
   <g id="line2d_27">
    <path d="M 68.222514 33.66 
L 103.731605 79.354563 
L 139.240696 123.904567 
L 174.749787 167.337207 
L 210.258878 209.679068 
L 245.767969 250.956137 
L 281.27706 259.612707 
L 316.786151 257.652258 
L 352.295241 260.46 
L 387.804332 257.528504 
L 423.313423 254.181914 
" clip-path="url(#p70dd20865d)" style="fill: none; stroke: #d62728; stroke-width: 1.5; stroke-linecap: square"/>
    <defs>
     <path id="m0c7b1d24fc" d="M 0 -3 
L -3 3 
L 3 3 
z
" style="stroke: #d62728; stroke-linejoin: miter"/>
    </defs>
    <g clip-path="url(#p70dd20865d)">
     <use xlink:href="#m0c7b1d24fc" x="68.222514" y="33.66" style="fill: #d62728; stroke: #d62728; stroke-linejoin: miter"/>
     <use xlink:href="#m0c7b1d24fc" x="103.731605" y="79.354563" style="fill: #d62728; stroke: #d62728; stroke-linejoin: miter"/>
     <use xlink:href="#m0c7b1d24fc" x="139.240696" y="123.904567" style="fill: #d62728; stroke: #d62728; stroke-linejoin: miter"/>
     <use xlink:href="#m0c7b1d24fc" x="174.749787" y="167.337207" style="fill: #d62728; stroke: #d62728; stroke-linejoin: miter"/>
     <use xlink:href="#m0c7b1d24fc" x="210.258878" y="209.679068" style="fill: #d62728; stroke: #d62728; stroke-linejoin: miter"/>
     <use xlink:href="#m0c7b1d24fc" x="245.767969" y="250.956137" style="fill: #d62728; stroke: #d62728; stroke-linejoin: miter"/>
     <use xlink:href="#m0c7b1d24fc" x="281.27706" y="259.612707" style="fill: #d62728; stroke: #d62728; stroke-linejoin: miter"/>
     <use xlink:href="#m0c7b1d24fc" x="316.786151" y="257.652258" style="fill: #d62728; stroke: #d62728; stroke-linejoin: miter"/>
     <use xlink:href="#m0c7b1d24fc" x="352.295241" y="260.46" style="fill: #d62728; stroke: #d62728; stroke-linejoin: miter"/>
     <use xlink:href="#m0c7b1d24fc" x="387.804332" y="257.528504" style="fill: #d62728; stroke: #d62728; stroke-linejoin: miter"/>
     <use xlink:href="#m0c7b1d24fc" x="423.313423" y="254.181914" style="fill: #d62728; stroke: #d62728; stroke-linejoin: miter"/>
    </g>
   </g>
   <g id="line2d_28">
    <path d="M 68.222514 33.66 
L 103.731605 64.18374 
L 139.240696 94.061912 
L 174.749787 123.306957 
L 210.258878 151.931162 
L 245.767969 179.946663 
L 281.27706 207.365441 
L 316.786151 234.199328 
L 352.295241 260.46 
L 387.804332 170.695051 
L 423.313423 185.682783 
" clip-path="url(#p70dd20865d)" style="fill: none; stroke: #1f77b4; stroke-width: 1.5; stroke-linecap: square"/>
   </g>
   <g id="line2d_29">
    <path d="M 50.467969 265.04032 
L 441.067969 265.04032 
" clip-path="url(#p70dd20865d)" style="fill: none; stroke-dasharray: 0.8,1.32; stroke-dashoffset: 0; stroke: #000000; stroke-width: 0.8"/>
   </g>
   <g id="patch_3">
    <path d="M 50.467969 271.8 
L 50.467969 22.32 
" style="fill: none; stroke: #000000; stroke-width: 0.8; stroke-linejoin: miter; stroke-linecap: square"/>
   </g>
   <g id="patch_4">
    <path d="M 441.067969 271.8 
L 441.067969 22.32 
" style="fill: none; stroke: #000000; stroke-width: 0.8; stroke-linejoin: miter; stroke-linecap: square"/>
   </g>
   <g id="patch_5">
    <path d="M 50.467969 271.8 
L 441.067969 271.8 
" style="fill: none; stroke: #000000; stroke-width: 0.8; stroke-linejoin: miter; stroke-linecap: square"/>
   </g>
   <g id="patch_6">
    <path d="M 50.467969 22.32 
L 441.067969 22.32 
" style="fill: none; stroke: #000000; stroke-width: 0.8; stroke-linejoin: miter; stroke-linecap: square"/>
   </g>
   <g id="text_15">
    <!-- Fidelity vs. $e_d$ — paper baseline vs. optimizer (N=10, $f_{min}$=0.9) -->
    <g transform="translate(58.027969 16.32) scale(0.12 -0.12)">
     <defs>
      <path id="DejaVuSans-59" d="M 191 3500 
L 800 3500 
L 1894 563 
L 2988 3500 
L 3597 3500 
L 2284 0 
L 1503 0 
L 191 3500 
z
" transform="scale(0.015625)"/>
      <path id="DejaVuSans-56" d="M 2834 3397 
L 2834 2853 
Q 2591 2978 2328 3040 
Q 2066 3103 1784 3103 
Q 1356 3103 1142 2972 
Q 928 2841 928 2578 
Q 928 2378 1081 2264 
Q 1234 2150 1697 2047 
L 1894 2003 
Q 2506 1872 2764 1633 
Q 3022 1394 3022 966 
Q 3022 478 2636 193 
Q 2250 -91 1575 -91 
Q 1294 -91 989 -36 
Q 684 19 347 128 
L 347 722 
Q 666 556 975 473 
Q 1284 391 1588 391 
Q 1994 391 2212 530 
Q 2431 669 2431 922 
Q 2431 1156 2273 1281 
Q 2116 1406 1581 1522 
L 1381 1569 
Q 847 1681 609 1914 
Q 372 2147 372 2553 
Q 372 3047 722 3315 
Q 1072 3584 1716 3584 
Q 2034 3584 2315 3537 
Q 2597 3491 2834 3397 
z
" transform="scale(0.015625)"/>
      <path id="DejaVuSansDisplay-4" d="M 313 1978 
L 6088 1978 
L 6088 1528 
L 313 1528 
L 313 1978 
z
" transform="scale(0.015625)"/>
      <path id="DejaVuSans-50" d="M 3328 2828 
Q 3544 3216 3844 3400 
Q 4144 3584 4550 3584 
Q 5097 3584 5394 3201 
Q 5691 2819 5691 2113 
L 5691 0 
L 5113 0 
L 5113 2094 
Q 5113 2597 4934 2840 
Q 4756 3084 4391 3084 
Q 3944 3084 3684 2787 
Q 3425 2491 3425 1978 
L 3425 0 
L 2847 0 
L 2847 2094 
Q 2847 2600 2669 2842 
Q 2491 3084 2119 3084 
Q 1678 3084 1418 2786 
Q 1159 2488 1159 1978 
L 1159 0 
L 581 0 
L 581 3500 
L 1159 3500 
L 1159 2956 
Q 1356 3278 1631 3431 
Q 1906 3584 2284 3584 
Q 2666 3584 2933 3390 
Q 3200 3197 3328 2828 
z
" transform="scale(0.015625)"/>
      <path id="DejaVuSans-b" d="M 1984 4856 
Q 1566 4138 1362 3434 
Q 1159 2731 1159 2009 
Q 1159 1288 1364 580 
Q 1569 -128 1984 -844 
L 1484 -844 
Q 1016 -109 783 600 
Q 550 1309 550 2009 
Q 550 2706 781 3412 
Q 1013 4119 1484 4856 
L 1984 4856 
z
" transform="scale(0.015625)"/>
      <path id="DejaVuSans-31" d="M 628 4666 
L 1478 4666 
L 3547 763 
L 3547 4666 
L 4159 4666 
L 4159 0 
L 3309 0 
L 1241 3903 
L 1241 0 
L 628 0 
L 628 4666 
z
" transform="scale(0.015625)"/>
      <path id="DejaVuSans-20" d="M 678 2906 
L 4684 2906 
L 4684 2381 
L 678 2381 
L 678 2906 
z
M 678 1631 
L 4684 1631 
L 4684 1100 
L 678 1100 
L 678 1631 
z
" transform="scale(0.015625)"/>
      <path id="DejaVuSans-f" d="M 750 794 
L 1409 794 
L 1409 256 
L 897 -744 
L 494 -744 
L 750 256 
L 750 794 
z
" transform="scale(0.015625)"/>
      <path id="DejaVuSans-Oblique-49" d="M 3059 4863 
L 2969 4384 
L 2419 4384 
Q 2106 4384 1964 4261 
Q 1822 4138 1753 3809 
L 1691 3500 
L 2638 3500 
L 2553 3053 
L 1606 3053 
L 1013 0 
L 434 0 
L 1031 3053 
L 481 3053 
L 563 3500 
L 1113 3500 
L 1159 3744 
Q 1278 4363 1576 4613 
Q 1875 4863 2516 4863 
L 3059 4863 
z
" transform="scale(0.015625)"/>
      <path id="DejaVuSans-Oblique-50" d="M 5747 2113 
L 5338 0 
L 4763 0 
L 5166 2094 
Q 5191 2228 5203 2325 
Q 5216 2422 5216 2491 
Q 5216 2772 5059 2928 
Q 4903 3084 4622 3084 
Q 4203 3084 3875 2770 
Q 3547 2456 3450 1953 
L 3066 0 
L 2491 0 
L 2900 2094 
Q 2925 2209 2937 2307 
Q 2950 2406 2950 2484 
Q 2950 2769 2794 2926 
Q 2638 3084 2363 3084 
Q 1938 3084 1609 2770 
Q 1281 2456 1184 1953 
L 800 0 
L 225 0 
L 909 3500 
L 1484 3500 
L 1375 2956 
Q 1609 3263 1923 3423 
Q 2238 3584 2597 3584 
Q 2978 3584 3223 3384 
Q 3469 3184 3519 2828 
Q 3781 3197 4126 3390 
Q 4472 3584 4856 3584 
Q 5306 3584 5551 3325 
Q 5797 3066 5797 2591 
Q 5797 2488 5784 2364 
Q 5772 2241 5747 2113 
z
" transform="scale(0.015625)"/>
      <path id="DejaVuSans-Oblique-4c" d="M 1172 4863 
L 1747 4863 
L 1606 4134 
L 1031 4134 
L 1172 4863 
z
M 909 3500 
L 1484 3500 
L 800 0 
L 225 0 
L 909 3500 
z
" transform="scale(0.015625)"/>
      <path id="DejaVuSans-Oblique-51" d="M 3566 2113 
L 3156 0 
L 2578 0 
L 2988 2091 
Q 3016 2238 3031 2350 
Q 3047 2463 3047 2528 
Q 3047 2791 2881 2937 
Q 2716 3084 2419 3084 
Q 1956 3084 1622 2776 
Q 1288 2469 1184 1941 
L 800 0 
L 225 0 
L 903 3500 
L 1478 3500 
L 1363 2950 
Q 1603 3253 1940 3418 
Q 2278 3584 2650 3584 
Q 3113 3584 3367 3334 
Q 3622 3084 3622 2631 
Q 3622 2519 3608 2391 
Q 3594 2263 3566 2113 
z
" transform="scale(0.015625)"/>
      <path id="DejaVuSans-c" d="M 513 4856 
L 1013 4856 
Q 1481 4119 1714 3412 
Q 1947 2706 1947 2009 
Q 1947 1309 1714 600 
Q 1481 -109 1013 -844 
L 513 -844 
Q 928 -128 1133 580 
Q 1338 1288 1338 2009 
Q 1338 2731 1133 3434 
Q 928 4138 513 4856 
z
" transform="scale(0.015625)"/>
     </defs>
     <use xlink:href="#DejaVuSans-29" transform="translate(0 0.015625)"/>
     <use xlink:href="#DejaVuSans-4c" transform="translate(50.519531 0.015625)"/>
     <use xlink:href="#DejaVuSans-47" transform="translate(78.302734 0.015625)"/>
     <use xlink:href="#DejaVuSans-48" transform="translate(141.779297 0.015625)"/>
     <use xlink:href="#DejaVuSans-4f" transform="translate(203.302734 0.015625)"/>
     <use xlink:href="#DejaVuSans-4c" transform="translate(231.085938 0.015625)"/>
     <use xlink:href="#DejaVuSans-57" transform="translate(258.869141 0.015625)"/>
     <use xlink:href="#DejaVuSans-5c" transform="translate(298.078125 0.015625)"/>
     <use xlink:href="#DejaVuSans-3" transform="translate(357.257812 0.015625)"/>
     <use xlink:href="#DejaVuSans-59" transform="translate(389.044922 0.015625)"/>
     <use xlink:href="#DejaVuSans-56" transform="translate(448.224609 0.015625)"/>
     <use xlink:href="#DejaVuSans-11" transform="translate(500.324219 0.015625)"/>
     <use xlink:href="#DejaVuSans-3" transform="translate(532.111328 0.015625)"/>
     <use xlink:href="#DejaVuSans-Oblique-48" transform="translate(563.898438 0.015625)"/>
     <use xlink:href="#DejaVuSans-Oblique-47" transform="translate(625.421875 -14.984326) scale(0.7)"/>
     <use xlink:href="#DejaVuSans-3" transform="translate(672.589844 0.015625)"/>
     <use xlink:href="#DejaVuSansDisplay-4" transform="translate(704.376953 0.015625)"/>
     <use xlink:href="#DejaVuSans-3" transform="translate(804.376953 0.015625)"/>
     <use xlink:href="#DejaVuSans-53" transform="translate(836.164062 0.015625)"/>
     <use xlink:href="#DejaVuSans-44" transform="translate(899.640625 0.015625)"/>
     <use xlink:href="#DejaVuSans-53" transform="translate(960.919922 0.015625)"/>
     <use xlink:href="#DejaVuSans-48" transform="translate(1024.396484 0.015625)"/>
     <use xlink:href="#DejaVuSans-55" transform="translate(1085.919922 0.015625)"/>
     <use xlink:href="#DejaVuSans-3" transform="translate(1127.033203 0.015625)"/>
     <use xlink:href="#DejaVuSans-45" transform="translate(1158.820312 0.015625)"/>
     <use xlink:href="#DejaVuSans-44" transform="translate(1222.296875 0.015625)"/>
     <use xlink:href="#DejaVuSans-56" transform="translate(1283.576172 0.015625)"/>
     <use xlink:href="#DejaVuSans-48" transform="translate(1335.675781 0.015625)"/>
     <use xlink:href="#DejaVuSans-4f" transform="translate(1397.199219 0.015625)"/>
     <use xlink:href="#DejaVuSans-4c" transform="translate(1424.982422 0.015625)"/>
     <use xlink:href="#DejaVuSans-51" transform="translate(1452.765625 0.015625)"/>
     <use xlink:href="#DejaVuSans-48" transform="translate(1516.144531 0.015625)"/>
     <use xlink:href="#DejaVuSans-3" transform="translate(1577.667969 0.015625)"/>
     <use xlink:href="#DejaVuSans-59" transform="translate(1609.455078 0.015625)"/>
     <use xlink:href="#DejaVuSans-56" transform="translate(1668.634766 0.015625)"/>
     <use xlink:href="#DejaVuSans-11" transform="translate(1720.734375 0.015625)"/>
     <use xlink:href="#DejaVuSans-3" transform="translate(1752.521484 0.015625)"/>
     <use xlink:href="#DejaVuSans-52" transform="translate(1784.308594 0.015625)"/>
     <use xlink:href="#DejaVuSans-53" transform="translate(1845.490234 0.015625)"/>
     <use xlink:href="#DejaVuSans-57" transform="translate(1908.966797 0.015625)"/>
     <use xlink:href="#DejaVuSans-4c" transform="translate(1948.175781 0.015625)"/>
     <use xlink:href="#DejaVuSans-50" transform="translate(1975.958984 0.015625)"/>
     <use xlink:href="#DejaVuSans-4c" transform="translate(2073.371094 0.015625)"/>
     <use xlink:href="#DejaVuSans-5d" transform="translate(2101.154297 0.015625)"/>
     <use xlink:href="#DejaVuSans-48" transform="translate(2153.644531 0.015625)"/>
     <use xlink:href="#DejaVuSans-55" transform="translate(2215.167969 0.015625)"/>
     <use xlink:href="#DejaVuSans-3" transform="translate(2256.28125 0.015625)"/>
     <use xlink:href="#DejaVuSans-b" transform="translate(2288.068359 0.015625)"/>
     <use xlink:href="#DejaVuSans-31" transform="translate(2327.082031 0.015625)"/>
     <use xlink:href="#DejaVuSans-20" transform="translate(2401.886719 0.015625)"/>
     <use xlink:href="#DejaVuSans-14" transform="translate(2485.675781 0.015625)"/>
     <use xlink:href="#DejaVuSans-13" transform="translate(2549.298828 0.015625)"/>
     <use xlink:href="#DejaVuSans-f" transform="translate(2612.921875 0.015625)"/>
     <use xlink:href="#DejaVuSans-3" transform="translate(2644.708984 0.015625)"/>
     <use xlink:href="#DejaVuSans-Oblique-49" transform="translate(2676.496094 0.015625)"/>
     <use xlink:href="#DejaVuSans-Oblique-50" transform="translate(2711.701172 -14.984326) scale(0.7)"/>
     <use xlink:href="#DejaVuSans-Oblique-4c" transform="translate(2779.889648 -14.984326) scale(0.7)"/>
     <use xlink:href="#DejaVuSans-Oblique-51" transform="translate(2799.337891 -14.984326) scale(0.7)"/>
     <use xlink:href="#DejaVuSans-20" transform="translate(2846.4375 0.015625)"/>
     <use xlink:href="#DejaVuSans-13" transform="translate(2930.226562 0.015625)"/>
     <use xlink:href="#DejaVuSans-11" transform="translate(2993.849609 0.015625)"/>
     <use xlink:href="#DejaVuSans-1c" transform="translate(3025.636719 0.015625)"/>
     <use xlink:href="#DejaVuSans-c" transform="translate(3089.259766 0.015625)"/>
    </g>
   </g>
   <g id="legend_1">
    <g id="patch_7">
     <path d="M 247.358594 90.324687 
L 434.067969 90.324687 
Q 436.067969 90.324687 436.067969 88.324687 
L 436.067969 29.32 
Q 436.067969 27.32 434.067969 27.32 
L 247.358594 27.32 
Q 245.358594 27.32 245.358594 29.32 
L 245.358594 88.324687 
Q 245.358594 90.324687 247.358594 90.324687 
z
" style="fill: #ffffff; opacity: 0.8; stroke: #cccccc; stroke-linejoin: miter"/>
    </g>
    <g id="line2d_30">
     <path d="M 249.358594 35.418437 
L 259.358594 35.418437 
L 269.358594 35.418437 
" style="fill: none; stroke-dasharray: 5.55,2.4; stroke-dashoffset: 0; stroke: #7f7f7f; stroke-width: 1.5"/>
     <g>
      <use xlink:href="#m9ad724bcd5" x="259.358594" y="35.418437" style="fill: #7f7f7f; stroke: #7f7f7f; stroke-linejoin: miter"/>
     </g>
    </g>
    <g id="text_16">
     <!-- Paper baseline (flexible_paper) -->
     <g transform="translate(277.358594 38.918437) scale(0.1 -0.1)">
      <defs>
       <path id="DejaVuSans-33" d="M 1259 4147 
L 1259 2394 
L 2053 2394 
Q 2494 2394 2734 2622 
Q 2975 2850 2975 3272 
Q 2975 3691 2734 3919 
Q 2494 4147 2053 4147 
L 1259 4147 
z
M 628 4666 
L 2053 4666 
Q 2838 4666 3239 4311 
Q 3641 3956 3641 3272 
Q 3641 2581 3239 2228 
Q 2838 1875 2053 1875 
L 1259 1875 
L 1259 0 
L 628 0 
L 628 4666 
z
" transform="scale(0.015625)"/>
       <path id="DejaVuSans-13b0" d="M 1831 4863 
L 3431 4863 
L 3431 0 
L 2853 0 
L 2853 4384 
L 1825 4384 
Q 1516 4384 1395 4259 
Q 1275 4134 1275 3809 
L 1275 3500 
L 2222 3500 
L 2222 3053 
L 1275 3053 
L 1275 0 
L 697 0 
L 697 3053 
L 147 3053 
L 147 3500 
L 697 3500 
L 697 3744 
Q 697 4328 969 4595 
Q 1241 4863 1831 4863 
z
" transform="scale(0.015625)"/>
       <path id="DejaVuSans-5b" d="M 3513 3500 
L 2247 1797 
L 3578 0 
L 2900 0 
L 1881 1375 
L 863 0 
L 184 0 
L 1544 1831 
L 300 3500 
L 978 3500 
L 1906 2253 
L 2834 3500 
L 3513 3500 
z
" transform="scale(0.015625)"/>
       <path id="DejaVuSans-42" d="M 3263 -1063 
L 3263 -1509 
L -63 -1509 
L -63 -1063 
L 3263 -1063 
z
" transform="scale(0.015625)"/>
      </defs>
      <use xlink:href="#DejaVuSans-33"/>
      <use xlink:href="#DejaVuSans-44" transform="translate(55.8125 0)"/>
      <use xlink:href="#DejaVuSans-53" transform="translate(117.09375 0)"/>
      <use xlink:href="#DejaVuSans-48" transform="translate(180.578125 0)"/>
      <use xlink:href="#DejaVuSans-55" transform="translate(242.109375 0)"/>
      <use xlink:href="#DejaVuSans-3" transform="translate(283.21875 0)"/>
      <use xlink:href="#DejaVuSans-45" transform="translate(315 0)"/>
      <use xlink:href="#DejaVuSans-44" transform="translate(378.484375 0)"/>
      <use xlink:href="#DejaVuSans-56" transform="translate(439.765625 0)"/>
      <use xlink:href="#DejaVuSans-48" transform="translate(491.859375 0)"/>
      <use xlink:href="#DejaVuSans-4f" transform="translate(553.390625 0)"/>
      <use xlink:href="#DejaVuSans-4c" transform="translate(581.171875 0)"/>
      <use xlink:href="#DejaVuSans-51" transform="translate(608.953125 0)"/>
      <use xlink:href="#DejaVuSans-48" transform="translate(672.328125 0)"/>
      <use xlink:href="#DejaVuSans-3" transform="translate(733.859375 0)"/>
      <use xlink:href="#DejaVuSans-b" transform="translate(765.640625 0)"/>
      <use xlink:href="#DejaVuSans-13b0" transform="translate(804.65625 0)"/>
      <use xlink:href="#DejaVuSans-48" transform="translate(867.640625 0)"/>
      <use xlink:href="#DejaVuSans-5b" transform="translate(927.421875 0)"/>
      <use xlink:href="#DejaVuSans-4c" transform="translate(986.609375 0)"/>
      <use xlink:href="#DejaVuSans-45" transform="translate(1014.390625 0)"/>
      <use xlink:href="#DejaVuSans-4f" transform="translate(1077.875 0)"/>
      <use xlink:href="#DejaVuSans-48" transform="translate(1105.65625 0)"/>
      <use xlink:href="#DejaVuSans-42" transform="translate(1167.1875 0)"/>
      <use xlink:href="#DejaVuSans-53" transform="translate(1217.1875 0)"/>
      <use xlink:href="#DejaVuSans-44" transform="translate(1280.671875 0)"/>
      <use xlink:href="#DejaVuSans-53" transform="translate(1341.953125 0)"/>
      <use xlink:href="#DejaVuSans-48" transform="translate(1405.4375 0)"/>
      <use xlink:href="#DejaVuSans-55" transform="translate(1466.96875 0)"/>
      <use xlink:href="#DejaVuSans-c" transform="translate(1508.078125 0)"/>
     </g>
    </g>
    <g id="line2d_31">
     <path d="M 249.358594 50.419219 
L 259.358594 50.419219 
L 269.358594 50.419219 
" style="fill: none; stroke: #1f77b4; stroke-width: 1.5; stroke-linecap: square"/>
     <g>
      <use xlink:href="#m3b48075adb" x="259.358594" y="50.419219" style="fill: #1f77b4; stroke: #1f77b4"/>
     </g>
    </g>
    <g id="text_17">
     <!-- Optimizer (matched cost) -->
     <g transform="translate(277.358594 53.919219) scale(0.1 -0.1)">
      <defs>
       <path id="DejaVuSans-32" d="M 2522 4238 
Q 1834 4238 1429 3725 
Q 1025 3213 1025 2328 
Q 1025 1447 1429 934 
Q 1834 422 2522 422 
Q 3209 422 3611 934 
Q 4013 1447 4013 2328 
Q 4013 3213 3611 3725 
Q 3209 4238 2522 4238 
z
M 2522 4750 
Q 3503 4750 4090 4092 
Q 4678 3434 4678 2328 
Q 4678 1225 4090 567 
Q 3503 -91 2522 -91 
Q 1538 -91 948 565 
Q 359 1222 359 2328 
Q 359 3434 948 4092 
Q 1538 4750 2522 4750 
z
" transform="scale(0.015625)"/>
       <path id="DejaVuSans-46" d="M 3122 3366 
L 3122 2828 
Q 2878 2963 2633 3030 
Q 2388 3097 2138 3097 
Q 1578 3097 1268 2742 
Q 959 2388 959 1747 
Q 959 1106 1268 751 
Q 1578 397 2138 397 
Q 2388 397 2633 464 
Q 2878 531 3122 666 
L 3122 134 
Q 2881 22 2623 -34 
Q 2366 -91 2075 -91 
Q 1284 -91 818 406 
Q 353 903 353 1747 
Q 353 2603 823 3093 
Q 1294 3584 2113 3584 
Q 2378 3584 2631 3529 
Q 2884 3475 3122 3366 
z
" transform="scale(0.015625)"/>
       <path id="DejaVuSans-4b" d="M 3513 2113 
L 3513 0 
L 2938 0 
L 2938 2094 
Q 2938 2591 2744 2837 
Q 2550 3084 2163 3084 
Q 1697 3084 1428 2787 
Q 1159 2491 1159 1978 
L 1159 0 
L 581 0 
L 581 4863 
L 1159 4863 
L 1159 2956 
Q 1366 3272 1645 3428 
Q 1925 3584 2291 3584 
Q 2894 3584 3203 3211 
Q 3513 2838 3513 2113 
z
" transform="scale(0.015625)"/>
      </defs>
      <use xlink:href="#DejaVuSans-32"/>
      <use xlink:href="#DejaVuSans-53" transform="translate(78.71875 0)"/>
      <use xlink:href="#DejaVuSans-57" transform="translate(142.203125 0)"/>
      <use xlink:href="#DejaVuSans-4c" transform="translate(181.40625 0)"/>
      <use xlink:href="#DejaVuSans-50" transform="translate(209.1875 0)"/>
      <use xlink:href="#DejaVuSans-4c" transform="translate(306.59375 0)"/>
      <use xlink:href="#DejaVuSans-5d" transform="translate(334.375 0)"/>
      <use xlink:href="#DejaVuSans-48" transform="translate(386.859375 0)"/>
      <use xlink:href="#DejaVuSans-55" transform="translate(448.390625 0)"/>
      <use xlink:href="#DejaVuSans-3" transform="translate(489.5 0)"/>
      <use xlink:href="#DejaVuSans-b" transform="translate(521.28125 0)"/>
      <use xlink:href="#DejaVuSans-50" transform="translate(560.296875 0)"/>
      <use xlink:href="#DejaVuSans-44" transform="translate(657.703125 0)"/>
      <use xlink:href="#DejaVuSans-57" transform="translate(718.984375 0)"/>
      <use xlink:href="#DejaVuSans-46" transform="translate(758.1875 0)"/>
      <use xlink:href="#DejaVuSans-4b" transform="translate(813.171875 0)"/>
      <use xlink:href="#DejaVuSans-48" transform="translate(876.546875 0)"/>
      <use xlink:href="#DejaVuSans-47" transform="translate(938.078125 0)"/>
      <use xlink:href="#DejaVuSans-3" transform="translate(1001.5625 0)"/>
      <use xlink:href="#DejaVuSans-46" transform="translate(1033.34375 0)"/>
      <use xlink:href="#DejaVuSans-52" transform="translate(1088.328125 0)"/>
      <use xlink:href="#DejaVuSans-56" transform="translate(1149.515625 0)"/>
      <use xlink:href="#DejaVuSans-57" transform="translate(1201.609375 0)"/>
      <use xlink:href="#DejaVuSans-c" transform="translate(1240.8125 0)"/>
     </g>
    </g>
    <g id="line2d_32">
     <path d="M 249.358594 65.42 
L 259.358594 65.42 
L 269.358594 65.42 
" style="fill: none; stroke: #d62728; stroke-width: 1.5; stroke-linecap: square"/>
     <g>
      <use xlink:href="#m0c7b1d24fc" x="259.358594" y="65.42" style="fill: #d62728; stroke: #d62728; stroke-linejoin: miter"/>
     </g>
    </g>
    <g id="text_18">
     <!-- Optimizer (budget ≤ cost) -->
     <g transform="translate(277.358594 68.92) scale(0.1 -0.1)">
      <defs>
       <path id="DejaVuSans-58" d="M 544 1381 
L 544 3500 
L 1119 3500 
L 1119 1403 
Q 1119 906 1312 657 
Q 1506 409 1894 409 
Q 2359 409 2629 706 
Q 2900 1003 2900 1516 
L 2900 3500 
L 3475 3500 
L 3475 0 
L 2900 0 
L 2900 538 
Q 2691 219 2414 64 
Q 2138 -91 1772 -91 
Q 1169 -91 856 284 
Q 544 659 544 1381 
z
M 1991 3584 
L 1991 3584 
z
" transform="scale(0.015625)"/>
       <path id="DejaVuSans-cee" d="M 4684 3175 
L 1684 2309 
L 4684 1453 
L 4684 897 
L 678 2047 
L 678 2578 
L 4684 3725 
L 4684 3175 
z
M 678 531 
L 4684 531 
L 4684 0 
L 678 0 
L 678 531 
z
" transform="scale(0.015625)"/>
      </defs>
      <use xlink:href="#DejaVuSans-32"/>
      <use xlink:href="#DejaVuSans-53" transform="translate(78.71875 0)"/>
      <use xlink:href="#DejaVuSans-57" transform="translate(142.203125 0)"/>
      <use xlink:href="#DejaVuSans-4c" transform="translate(181.40625 0)"/>
      <use xlink:href="#DejaVuSans-50" transform="translate(209.1875 0)"/>
      <use xlink:href="#DejaVuSans-4c" transform="translate(306.59375 0)"/>
      <use xlink:href="#DejaVuSans-5d" transform="translate(334.375 0)"/>
      <use xlink:href="#DejaVuSans-48" transform="translate(386.859375 0)"/>
      <use xlink:href="#DejaVuSans-55" transform="translate(448.390625 0)"/>
      <use xlink:href="#DejaVuSans-3" transform="translate(489.5 0)"/>
      <use xlink:href="#DejaVuSans-b" transform="translate(521.28125 0)"/>
      <use xlink:href="#DejaVuSans-45" transform="translate(560.296875 0)"/>
      <use xlink:href="#DejaVuSans-58" transform="translate(623.78125 0)"/>
      <use xlink:href="#DejaVuSans-47" transform="translate(687.15625 0)"/>
      <use xlink:href="#DejaVuSans-4a" transform="translate(750.640625 0)"/>
      <use xlink:href="#DejaVuSans-48" transform="translate(814.125 0)"/>
      <use xlink:href="#DejaVuSans-57" transform="translate(875.65625 0)"/>
      <use xlink:href="#DejaVuSans-3" transform="translate(914.859375 0)"/>
      <use xlink:href="#DejaVuSans-cee" transform="translate(946.640625 0)"/>
      <use xlink:href="#DejaVuSans-3" transform="translate(1030.4375 0)"/>
      <use xlink:href="#DejaVuSans-46" transform="translate(1062.21875 0)"/>
      <use xlink:href="#DejaVuSans-52" transform="translate(1117.203125 0)"/>
      <use xlink:href="#DejaVuSans-56" transform="translate(1178.390625 0)"/>
      <use xlink:href="#DejaVuSans-57" transform="translate(1230.484375 0)"/>
      <use xlink:href="#DejaVuSans-c" transform="translate(1269.6875 0)"/>
     </g>
    </g>
    <g id="line2d_33">
     <path d="M 249.358594 80.422344 
L 259.358594 80.422344 
L 269.358594 80.422344 
" style="fill: none; stroke-dasharray: 0.8,1.32; stroke-dashoffset: 0; stroke: #000000; stroke-width: 0.8"/>
    </g>
    <g id="text_19">
     <!-- $f_{min}$=0.9 -->
     <g transform="translate(277.358594 83.922344) scale(0.1 -0.1)">
      <use xlink:href="#DejaVuSans-Oblique-49" transform="translate(0 0.015625)"/>
      <use xlink:href="#DejaVuSans-Oblique-50" transform="translate(35.205078 -14.984326) scale(0.7)"/>
      <use xlink:href="#DejaVuSans-Oblique-4c" transform="translate(103.393555 -14.984326) scale(0.7)"/>
      <use xlink:href="#DejaVuSans-Oblique-51" transform="translate(122.841797 -14.984326) scale(0.7)"/>
      <use xlink:href="#DejaVuSans-20" transform="translate(169.941406 0.015625)"/>
      <use xlink:href="#DejaVuSans-13" transform="translate(253.730469 0.015625)"/>
      <use xlink:href="#DejaVuSans-11" transform="translate(317.353516 0.015625)"/>
      <use xlink:href="#DejaVuSans-1c" transform="translate(349.140625 0.015625)"/>
     </g>
    </g>
   </g>
  </g>
 </g>
 <defs>
  <clipPath id="p70dd20865d">
   <rect x="50.467969" y="22.32" width="390.6" height="249.48"/>
  </clipPath>
 </defs>
</svg>
